<svg width="34" height="34" viewBox="0 0 34 34" fill="none" xmlns="http://www.w3.org/2000/svg">
<path fill-rule="evenodd" clip-rule="evenodd" d="M3.71199 6.54531C2.83331 7.42399 2.83331 8.8382 2.83331 11.6666V13.1041C2.83331 13.1622 2.83331 13.1912 2.83452 13.2157C2.85975 13.7294 3.27054 14.1402 3.78425 14.1654C3.80876 14.1666 3.83778 14.1666 3.89581 14.1666H4.24998C5.81479 14.1666 7.08331 15.4352 7.08331 17C7.08331 18.5648 5.81479 19.8333 4.24998 19.8333H3.89581C3.83778 19.8333 3.80876 19.8333 3.78425 19.8345C3.27054 19.8597 2.85975 20.2705 2.83452 20.7842C2.83331 20.8087 2.83331 20.8378 2.83331 20.8958V22.3333C2.83331 25.1617 2.83331 26.5759 3.71199 27.4546C4.59067 28.3333 6.00489 28.3333 8.83332 28.3333H25.1666C27.9951 28.3333 29.4093 28.3333 30.288 27.4546C31.1666 26.5759 31.1666 25.1617 31.1666 22.3333V20.8958C31.1666 20.8378 31.1666 20.8087 31.1654 20.7842C31.1402 20.2705 30.7294 19.8597 30.2157 19.8345C30.1912 19.8333 30.1622 19.8333 30.1041 19.8333H29.75C28.1852 19.8333 26.9166 18.5648 26.9166 17C26.9166 15.4352 28.1852 14.1666 29.75 14.1666H30.1041C30.1622 14.1666 30.1912 14.1666 30.2157 14.1654C30.7294 14.1402 31.1402 13.7294 31.1654 13.2157C31.1666 13.1912 31.1666 13.1622 31.1666 13.1041V11.6666C31.1666 8.8382 31.1666 7.42399 30.288 6.54531C29.4093 5.66663 27.9951 5.66663 25.1666 5.66663H8.83331C6.00489 5.66663 4.59067 5.66663 3.71199 6.54531ZM16.9228 14.175C16.7293 14.2177 16.6102 14.5259 16.3721 15.1421C16.2366 15.4925 16.1689 15.6677 16.0422 15.7869C16.0066 15.8203 15.968 15.8501 15.9269 15.8758C15.7805 15.9674 15.5976 15.9844 15.232 16.0184C14.6129 16.0759 14.3034 16.1047 14.2089 16.2878C14.1893 16.3258 14.176 16.3668 14.1695 16.4093C14.1382 16.6145 14.3657 16.8294 14.8208 17.259L14.9472 17.3783C15.1599 17.5792 15.2663 17.6797 15.3278 17.805C15.3648 17.8802 15.3895 17.9612 15.4011 18.0447C15.4204 18.1839 15.3893 18.3296 15.327 18.6211L15.3047 18.7252C15.193 19.2478 15.1371 19.5091 15.2069 19.6375C15.2695 19.7529 15.3849 19.8268 15.5123 19.8331C15.6542 19.8401 15.8542 19.671 16.2541 19.3329L16.2541 19.3329L16.2541 19.3329C16.5175 19.1101 16.6493 18.9987 16.7955 18.9552C16.9291 18.9154 17.0708 18.9154 17.2045 18.9552C17.3507 18.9987 17.4824 19.1101 17.7459 19.3329L17.7459 19.3329C18.1458 19.671 18.3457 19.8401 18.4876 19.8331C18.6151 19.8268 18.7305 19.7529 18.7931 19.6375C18.8628 19.5091 18.807 19.2478 18.6952 18.7252L18.673 18.6211C18.6107 18.3296 18.5795 18.1839 18.5989 18.0447C18.6105 17.9612 18.6352 17.8802 18.6721 17.805C18.7337 17.6797 18.84 17.5792 19.0528 17.3783L19.1792 17.259C19.6343 16.8294 19.8618 16.6145 19.8305 16.4093C19.824 16.3668 19.8107 16.3258 19.7911 16.2878C19.6966 16.1047 19.387 16.0759 18.768 16.0184C18.4023 15.9844 18.2195 15.9674 18.073 15.8758C18.0319 15.8501 17.9933 15.8203 17.9578 15.7869C17.8311 15.6677 17.7634 15.4925 17.6279 15.1421L17.6279 15.1421C17.3897 14.5259 17.2706 14.2177 17.0771 14.175C17.0263 14.1638 16.9737 14.1638 16.9228 14.175Z" fill="#BEBEBE"/>
</svg>
