<svg width="35" height="35" viewBox="0 0 35 35" fill="none" xmlns="http://www.w3.org/2000/svg">
<path d="M1 26.4167C1 27.1902 1.30729 27.9321 1.85427 28.4791C2.40125 29.026 3.14312 29.3333 3.91667 29.3333H31.625C32.3985 29.3333 33.1404 29.026 33.6874 28.4791C34.2344 27.9321 34.5417 27.1902 34.5417 26.4167V14.0208C34.5417 13.9241 34.5033 13.8314 34.4349 13.763C34.3665 13.6947 34.2738 13.6562 34.1771 13.6562H1.36458C1.26789 13.6562 1.17516 13.6947 1.10678 13.763C1.03841 13.8314 1 13.9241 1 14.0208V26.4167ZM25.0625 23.1354H29.4375C29.7276 23.1354 30.0058 23.2507 30.2109 23.4558C30.416 23.6609 30.5312 23.9391 30.5312 24.2292C30.5312 24.5192 30.416 24.7974 30.2109 25.0026C30.0058 25.2077 29.7276 25.3229 29.4375 25.3229H25.0625C24.7724 25.3229 24.4942 25.2077 24.2891 25.0026C24.084 24.7974 23.9688 24.5192 23.9688 24.2292C23.9688 23.9391 24.084 23.6609 24.2891 23.4558C24.4942 23.2507 24.7724 23.1354 25.0625 23.1354ZM6.83333 17.3021H18.5C18.7901 17.3021 19.0683 17.4173 19.2734 17.6224C19.4785 17.8276 19.5938 18.1058 19.5938 18.3958C19.5938 18.6859 19.4785 18.9641 19.2734 19.1692C19.0683 19.3743 18.7901 19.4896 18.5 19.4896H6.83333C6.54325 19.4896 6.26505 19.3743 6.05994 19.1692C5.85482 18.9641 5.73958 18.6859 5.73958 18.3958C5.73958 18.1058 5.85482 17.8276 6.05994 17.6224C6.26505 17.4173 6.54325 17.3021 6.83333 17.3021ZM6.83333 23.1354H11.2083C11.4984 23.1354 11.7766 23.2507 11.9817 23.4558C12.1868 23.6609 12.3021 23.9391 12.3021 24.2292C12.3021 24.5192 12.1868 24.7974 11.9817 25.0026C11.7766 25.2077 11.4984 25.3229 11.2083 25.3229H6.83333C6.54325 25.3229 6.26505 25.2077 6.05994 25.0026C5.85482 24.7974 5.73958 24.5192 5.73958 24.2292C5.73958 23.9391 5.85482 23.6609 6.05994 23.4558C6.26505 23.2507 6.54325 23.1354 6.83333 23.1354Z" fill="#BEBEBE"/>
<path d="M34.5417 8.91667C34.5417 8.14312 34.2344 7.40125 33.6874 6.85427C33.1404 6.30729 32.3985 6 31.625 6H3.91667C3.14312 6 2.40125 6.30729 1.85427 6.85427C1.30729 7.40125 1 8.14312 1 8.91667V11.1042C1 11.2009 1.03841 11.2936 1.10678 11.362C1.17516 11.4303 1.26789 11.4688 1.36458 11.4688H34.1771C34.2738 11.4688 34.3665 11.4303 34.4349 11.362C34.5033 11.2936 34.5417 11.2009 34.5417 11.1042V8.91667Z" fill="#BEBEBE"/>
</svg>
