<svg width="65" height="65" viewBox="0 0 65 65" fill="none" xmlns="http://www.w3.org/2000/svg">
<path d="M32.5 0C26.0721 0 19.7886 1.90609 14.444 5.47724C9.09938 9.04838 4.93378 14.1242 2.47393 20.0628C0.0140815 26.0014 -0.629526 32.536 0.624493 38.8404C1.87851 45.1448 4.97384 50.9357 9.51904 55.481C14.0642 60.0262 19.8552 63.1215 26.1596 64.3755C32.464 65.6295 38.9986 64.9859 44.9372 62.5261C50.8758 60.0662 55.9516 55.9006 59.5228 50.556C63.0939 45.2114 65 38.9279 65 32.5C65 28.232 64.1594 24.0059 62.5261 20.0628C60.8928 16.1197 58.4989 12.5369 55.481 9.51903C52.4631 6.50112 48.8803 4.10719 44.9372 2.47391C40.9941 0.840637 36.768 0 32.5 0ZM47.8075 43.1925L43.225 47.775L32.5 37.0825L21.8075 47.8075L17.1925 43.1925L27.9175 32.5L17.1925 21.8075L21.8075 17.1925L32.5 27.9175L43.1925 17.225L47.775 21.8075L37.0825 32.5L47.8075 43.1925Z" fill="#D32F2F"/>
</svg>
