<svg width="100" height="90" viewBox="0 0 1072 614" fill="none" xmlns="http://www.w3.org/2000/svg">
<path d="M470.232 393.657L212.093 231.057C210.902 230.306 210.306 229.931 210.302 229.383C210.299 228.835 210.89 228.452 212.071 227.686L824.147 -169.056C824.894 -169.54 825.268 -169.783 825.411 -169.642C825.554 -169.5 825.317 -169.124 824.842 -168.37L589.387 205.429C589.262 205.629 589.199 205.728 589.222 205.829C589.245 205.93 589.345 205.993 589.544 206.119L847.683 368.719C848.875 369.47 849.471 369.845 849.474 370.393C849.478 370.941 848.887 371.324 847.705 372.09L235.63 768.832C234.882 769.317 234.509 769.559 234.366 769.418C234.223 769.277 234.46 768.9 234.935 768.146L470.389 394.347C470.515 394.148 470.578 394.048 470.555 393.947C470.532 393.846 470.432 393.783 470.232 393.657Z" fill="#FFC700"/>
</svg>
