<svg width="40" height="40" viewBox="0 0 46 42" fill="none" xmlns="http://www.w3.org/2000/svg">
<path fill-rule="evenodd" clip-rule="evenodd" d="M17.5908 7.896C11.7915 9.89261 7.66656 15.0065 7.66656 21C7.66656 21.7357 7.72872 22.4582 7.84851 23.1633L21.1185 19.9168L17.5908 7.896ZM20.5083 7.1839L24.1445 19.5741L24.1576 19.6189C24.2144 19.8115 24.2936 20.0803 24.3308 20.3266C24.3773 20.6357 24.3971 21.1321 24.1057 21.6379C23.8143 22.1437 23.3749 22.3755 23.0842 22.4902C22.8525 22.5817 22.5802 22.648 22.3851 22.6954L22.3397 22.7065L8.69245 26.0453C10.91 31.2842 16.4797 35 22.9999 35C31.4683 35 38.3332 28.732 38.3332 21C38.3332 13.268 31.4683 7 22.9999 7C22.1515 7 21.3192 7.06291 20.5083 7.1839Z" fill="white"/>
<path d="M18.5774 5.92995C18.3184 5.04737 18.1889 4.60609 17.8083 4.40981C17.4276 4.21354 17.0207 4.35437 16.2068 4.63603C14.4613 5.24011 12.8185 6.07493 11.3321 7.11632C9.33521 8.51533 7.65969 10.2598 6.40119 12.25C5.14269 14.2402 4.32585 16.4373 3.99732 18.7158C3.75965 20.364 3.78089 22.0315 4.05744 23.6682C4.19906 24.5064 4.26987 24.9255 4.63384 25.1649C4.99781 25.4042 5.4461 25.2946 6.34266 25.0752L20.9668 21.4974C21.9214 21.2639 22.3988 21.1471 22.6122 20.7766C22.8257 20.4061 22.6873 19.9346 22.4106 18.9915L18.5774 5.92995Z" fill="white"/>
</svg>
