<svg width="31" height="31" viewBox="0 0 31 31" fill="none" xmlns="http://www.w3.org/2000/svg">
<path d="M0 6.70375V0H6.70375V2.325H2.325V6.70375H0ZM0 31V24.2962H2.325V28.675H6.70375V31H0ZM24.2962 31V28.675H28.675V24.2962H31V31H24.2962ZM28.675 6.70375V2.325H24.2962V0H31V6.70375H28.675ZM24.335 24.3737H26.7762V26.815H24.335V24.3737ZM24.335 19.4912H26.7762V21.9325H24.335V19.4912ZM21.8937 21.9325H24.335V24.3737H21.8937V21.9325ZM19.4525 24.3737H21.8937V26.815H19.4525V24.3737ZM17.0112 21.9325H19.4525V24.3737H17.0112V21.9325ZM21.8937 17.05H24.335V19.4912H21.8937V17.05ZM19.4525 19.4912H21.8937V21.9325H19.4525V19.4912ZM17.0112 17.05H19.4525V19.4912H17.0112V17.05ZM26.7762 4.185V13.95H17.0112V4.185H26.7762ZM13.95 17.05V26.815H4.185V17.05H13.95ZM13.95 4.185V13.95H4.185V4.185H13.95ZM12.0125 24.8775V18.9875H6.1225V24.8775H12.0125ZM12.0125 12.0125V6.1225H6.1225V12.0125H12.0125ZM24.8387 12.0125V6.1225H18.9487V12.0125H24.8387Z" fill="#BEBEBE"/>
</svg>
