<svg width="46" height="48" viewBox="0 0 46 48" fill="none" xmlns="http://www.w3.org/2000/svg">
<g filter="url(#filter0_d_432_2237)">
<path d="M37.5173 21.96C37.5955 21.32 37.6541 20.68 37.6541 20C37.6541 19.32 37.5955 18.68 37.5173 18.04L41.6388 14.74C42.0099 14.44 42.1076 13.9 41.8732 13.46L37.9666 6.54C37.7322 6.1 37.2048 5.94 36.7751 6.1L31.9114 8.1C30.8956 7.3 29.8018 6.64 28.6103 6.14L27.868 0.84C27.8094 0.36 27.3992 0 26.9109 0H19.0977C18.6094 0 18.1992 0.36 18.1406 0.84L17.3983 6.14C16.2068 6.64 15.113 7.32 14.0973 8.1L9.23354 6.1C8.78428 5.92 8.27642 6.1 8.04203 6.54L4.13543 13.46C3.8815 13.9 3.99869 14.44 4.36982 14.74L8.49129 18.04C8.41316 18.68 8.35456 19.34 8.35456 20C8.35456 20.66 8.41316 21.32 8.49129 21.96L4.36982 25.26C3.99869 25.56 3.90103 26.1 4.13543 26.54L8.04203 33.46C8.27642 33.9 8.80381 34.06 9.23354 33.9L14.0973 31.9C15.113 32.7 16.2068 33.36 17.3983 33.86L18.1406 39.16C18.1992 39.64 18.6094 40 19.0977 40H26.9109C27.3992 40 27.8094 39.64 27.868 39.16L28.6103 33.86C29.8018 33.36 30.8956 32.68 31.9114 31.9L36.7751 33.9C37.2243 34.08 37.7322 33.9 37.9666 33.46L41.8732 26.54C42.1076 26.1 42.0099 25.56 41.6388 25.26L37.5173 21.96ZM23.0043 27C19.2344 27 16.1678 23.86 16.1678 20C16.1678 16.14 19.2344 13 23.0043 13C26.7742 13 29.8409 16.14 29.8409 20C29.8409 23.86 26.7742 27 23.0043 27Z" fill="white"/>
</g>
<defs>
<filter id="filter0_d_432_2237" x="0" y="0" width="46" height="48" filterUnits="userSpaceOnUse" color-interpolation-filters="sRGB">
<feFlood flood-opacity="0" result="BackgroundImageFix"/>
<feColorMatrix in="SourceAlpha" type="matrix" values="0 0 0 0 0 0 0 0 0 0 0 0 0 0 0 0 0 0 127 0" result="hardAlpha"/>
<feOffset dy="4"/>
<feGaussianBlur stdDeviation="2"/>
<feComposite in2="hardAlpha" operator="out"/>
<feColorMatrix type="matrix" values="0 0 0 0 0 0 0 0 0 0 0 0 0 0 0 0 0 0 0.25 0"/>
<feBlend mode="normal" in2="BackgroundImageFix" result="effect1_dropShadow_432_2237"/>
<feBlend mode="normal" in="SourceGraphic" in2="effect1_dropShadow_432_2237" result="shape"/>
</filter>
</defs>
</svg>
