<svg width="40" height="40" viewBox="0 0 46 46" fill="none" xmlns="http://www.w3.org/2000/svg">
<path d="M9.2046 7.26493C9.38649 6.53737 9.47744 6.17359 9.7487 5.96179C10.02 5.75 10.3949 5.75 11.1449 5.75H34.8551C35.6051 5.75 35.98 5.75 36.2513 5.96179C36.5226 6.17359 36.6135 6.53737 36.7954 7.26493L39.6287 18.5983C39.9147 19.7422 40.0577 20.3142 39.7574 20.6987C39.4572 21.0833 38.8676 21.0833 37.6884 21.0833H35.9718C34.3535 21.0833 33.5443 21.0833 32.9848 20.6094C32.4253 20.1354 32.2923 19.3373 32.0263 17.7409L31.8223 16.517C31.7472 16.0667 31.7097 15.8416 31.625 15.8416C31.5403 15.8416 31.5028 16.0667 31.4277 16.517L31.2181 17.7748C30.9576 19.3379 30.8273 20.1195 30.2868 20.5908C30.2725 20.6033 30.258 20.6156 30.2433 20.6276C29.6896 21.0833 28.8972 21.0833 27.3125 21.0833V21.0833C25.7278 21.0833 24.9354 21.0833 24.3817 20.6276C24.367 20.6156 24.3525 20.6033 24.3382 20.5908C23.7977 20.1195 23.6674 19.3379 23.4069 17.7748L23.1973 16.517C23.1222 16.0667 23.0847 15.8416 23 15.8416C22.9153 15.8416 22.8778 16.0667 22.8027 16.517L22.5931 17.7748C22.3326 19.3379 22.2023 20.1195 21.6618 20.5908C21.6475 20.6033 21.633 20.6156 21.6183 20.6276C21.0646 21.0833 20.2722 21.0833 18.6875 21.0833V21.0833C17.1028 21.0833 16.3104 21.0833 15.7567 20.6276C15.742 20.6156 15.7275 20.6033 15.7132 20.5908C15.1727 20.1195 15.0424 19.3379 14.7819 17.7748L14.5723 16.517C14.4972 16.0667 14.4597 15.8416 14.375 15.8416C14.2903 15.8416 14.2528 16.0667 14.1777 16.517L13.9737 17.7409C13.7077 19.3373 13.5747 20.1354 13.0152 20.6094C12.4557 21.0833 11.6465 21.0833 10.0282 21.0833H8.31155C7.13242 21.0833 6.54285 21.0833 6.24257 20.6987C5.94229 20.3142 6.08529 19.7422 6.37127 18.5983L9.2046 7.26493Z" fill="white"/>
<path fill-rule="evenodd" clip-rule="evenodd" d="M9.5841 22.5833C9.58334 22.7671 9.58334 22.9612 9.58334 23.1666V40.1666C9.58334 41.1094 9.58334 41.5808 9.87624 41.8737C10.1691 42.1666 10.6405 42.1666 11.5833 42.1666H19.1667V33.5833C19.1667 33.031 19.6144 32.5833 20.1667 32.5833H25.8333C26.3856 32.5833 26.8333 33.031 26.8333 33.5833V42.1666H34.4167C35.3595 42.1666 35.8309 42.1666 36.1238 41.8737C36.4167 41.5808 36.4167 41.1094 36.4167 40.1666V23.1666C36.4167 22.9612 36.4167 22.7671 36.4159 22.5833H35.9718L35.892 22.5833C35.1517 22.5834 34.464 22.5835 33.8954 22.5125C33.265 22.4338 32.6014 22.2503 32.0153 21.7539C31.8676 21.6288 31.7388 21.4956 31.6257 21.3566C31.5221 21.4836 31.4052 21.6057 31.2725 21.7214C31.2475 21.7432 31.2221 21.7647 31.1965 21.7858C30.6158 22.2637 29.9644 22.4396 29.3468 22.5152C28.7892 22.5835 28.1156 22.5834 27.3907 22.5833L27.3125 22.5833L27.2344 22.5833C26.5094 22.5834 25.8359 22.5835 25.2783 22.5152C24.6606 22.4396 24.0092 22.2637 23.4286 21.7858C23.4029 21.7647 23.3775 21.7432 23.3525 21.7214C23.2202 21.606 23.1034 21.4841 23 21.3575C22.8966 21.4841 22.7799 21.606 22.6475 21.7214C22.6225 21.7432 22.5971 21.7647 22.5715 21.7858C21.9908 22.2637 21.3394 22.4396 20.7218 22.5152C20.1642 22.5835 19.4906 22.5834 18.7657 22.5833L18.6875 22.5833L18.6094 22.5833C17.8844 22.5834 17.2109 22.5835 16.6533 22.5152C16.0356 22.4396 15.3842 22.2637 14.8036 21.7858C14.7779 21.7647 14.7525 21.7432 14.7275 21.7214C14.5948 21.6057 14.4779 21.4836 14.3743 21.3566C14.2612 21.4956 14.1324 21.6288 13.9847 21.7539C13.3987 22.2503 12.7351 22.4338 12.1046 22.5125C11.536 22.5835 10.8483 22.5834 10.108 22.5833L10.0282 22.5833H9.5841ZM10.3712 19.583C11.0153 19.5816 11.4243 19.5741 11.7329 19.5356C11.8965 19.5152 11.98 19.4912 12.0187 19.4768C12.0364 19.4703 12.0437 19.4661 12.0445 19.4656L12.0456 19.4648L12.0466 19.4638C12.0472 19.4631 12.0525 19.4566 12.0619 19.4402C12.0819 19.4054 12.1177 19.3303 12.1629 19.181C11.3287 19.2108 10.7739 19.3023 10.3712 19.583ZM16.5809 19.1666C16.581 19.167 16.5811 19.1673 16.5812 19.1677C16.627 19.3227 16.6634 19.4003 16.6835 19.436C16.6927 19.4523 16.6979 19.4589 16.6985 19.4597C16.6987 19.4599 16.6987 19.4599 16.6987 19.4599C16.6987 19.4599 16.6988 19.4599 16.699 19.4602L16.7099 19.4694C16.7101 19.4696 16.7101 19.4696 16.7101 19.4696C16.7102 19.4696 16.7102 19.4696 16.7104 19.4697C16.7113 19.4702 16.7186 19.4743 16.7363 19.4807C16.7748 19.4947 16.8573 19.5178 17.0177 19.5374C17.3709 19.5807 17.8575 19.5833 18.6875 19.5833C19.5175 19.5833 20.0041 19.5807 20.3573 19.5374C20.5178 19.5178 20.6002 19.4947 20.6387 19.4807C20.6564 19.4743 20.6637 19.4702 20.6646 19.4697C20.6648 19.4696 20.6648 19.4696 20.6649 19.4696C20.6649 19.4696 20.6648 19.4696 20.6651 19.4694L20.676 19.4602L20.6763 19.4599L20.6765 19.4597C20.6771 19.4589 20.6823 19.4523 20.6915 19.436C20.7117 19.4003 20.748 19.3227 20.7938 19.1677C20.7939 19.1673 20.794 19.167 20.7941 19.1666H16.5809ZM25.2059 19.1666C25.206 19.167 25.2061 19.1673 25.2062 19.1677C25.252 19.3227 25.2884 19.4003 25.3085 19.436C25.3177 19.4523 25.3229 19.4589 25.3235 19.4597C25.3237 19.4599 25.3237 19.4599 25.3237 19.4599C25.3237 19.4599 25.3237 19.4599 25.324 19.4602L25.3349 19.4694C25.3354 19.4698 25.3349 19.4695 25.3354 19.4697C25.3363 19.4702 25.3436 19.4743 25.3613 19.4807C25.3998 19.4947 25.4823 19.5178 25.6427 19.5374C25.9959 19.5807 26.4825 19.5833 27.3125 19.5833C28.1425 19.5833 28.6291 19.5807 28.9823 19.5374C29.1428 19.5178 29.2252 19.4947 29.2637 19.4807C29.2814 19.4743 29.2887 19.4702 29.2896 19.4697C29.2901 19.4695 29.2896 19.4698 29.2901 19.4694L29.301 19.4602C29.3013 19.4599 29.3013 19.4599 29.3013 19.4599L29.3015 19.4597C29.3021 19.4589 29.3073 19.4523 29.3165 19.436C29.3367 19.4003 29.373 19.3227 29.4188 19.1677C29.4189 19.1673 29.419 19.167 29.4191 19.1666H25.2059ZM33.8371 19.181C34.6714 19.2108 35.2261 19.3023 35.6288 19.583C34.9847 19.5816 34.5757 19.5741 34.2671 19.5356C34.1035 19.5152 34.02 19.4912 33.9813 19.4768C33.9636 19.4703 33.9564 19.4661 33.9555 19.4656L33.9544 19.4648L33.9534 19.4638C33.9528 19.4631 33.9475 19.4566 33.9381 19.4402C33.9182 19.4054 33.8823 19.3303 33.8371 19.181ZM21.1667 42.1666H24.8333V34.5833H21.1667V42.1666Z" fill="white"/>
</svg>
