<svg width="40" height="40" viewBox="0 0 28 36" fill="none" xmlns="http://www.w3.org/2000/svg">
<path fill-rule="evenodd" clip-rule="evenodd" d="M4.04179 2.86018L20.6044 0.59697C23.7759 0.16359 25.3617 -0.0530992 26.3892 0.843546C27.4167 1.74019 27.4167 3.3407 27.4167 6.54173V16.9994H14.3622L20.4859 10.3432L19.0141 8.98904L11.3474 17.3224L10.7245 17.9994L11.3474 18.6765L19.0141 27.0098L20.4859 25.6557L14.3622 18.9994H27.4167V29.4571C27.4167 32.6582 27.4167 34.2587 26.3892 35.1553C25.3617 36.052 23.7759 35.8353 20.6044 35.4019L4.04179 33.1387H4.04175C2.3936 32.9135 1.56952 32.8009 1.07643 32.2358C0.583344 31.6707 0.583344 30.839 0.583344 29.1755V6.82335C0.583344 5.15985 0.583344 4.32811 1.07643 3.76305C1.56952 3.198 2.39361 3.08539 4.04179 2.86018Z" fill="white"/>
</svg>
