<svg width="65" height="65" viewBox="0 0 65 65" fill="none" xmlns="http://www.w3.org/2000/svg">
<path d="M32.5 0C26.0721 0 19.7886 1.90609 14.444 5.47724C9.09938 9.04838 4.93378 14.1242 2.47393 20.0628C0.0140816 26.0014 -0.629526 32.536 0.624493 38.8404C1.87851 45.1448 4.97384 50.9358 9.51904 55.481C14.0642 60.0262 19.8552 63.1215 26.1596 64.3755C32.464 65.6295 38.9986 64.9859 44.9372 62.5261C50.8758 60.0662 55.9516 55.9006 59.5228 50.556C63.0939 45.2114 65 38.9279 65 32.5C64.9804 23.8865 61.55 15.6314 55.4593 9.5407C49.3686 3.45002 41.1135 0.0196208 32.5 0ZM49.9572 25.0714L31.3857 43.6428C30.8634 44.1645 30.1554 44.4575 29.4172 44.4575C28.6789 44.4575 27.9709 44.1645 27.4486 43.6428L15.0429 31.3857C14.5212 30.8634 14.2282 30.1554 14.2282 29.4171C14.2282 28.6789 14.5212 27.9709 15.0429 27.4486C15.299 27.1858 15.6051 26.9769 15.9432 26.8343C16.2813 26.6916 16.6445 26.6182 17.0114 26.6182C17.3784 26.6182 17.7416 26.6916 18.0797 26.8343C18.4178 26.9769 18.7239 27.1858 18.98 27.4486L29.4172 37.8486L46.02 21.3571C46.2286 20.9903 46.5178 20.6756 46.8658 20.4369C47.2138 20.1982 47.6114 20.0416 48.0288 19.9791C48.4461 19.9165 48.8722 19.9496 49.2749 20.0758C49.6776 20.2021 50.0463 20.4181 50.3533 20.7077C50.6602 20.9973 50.8974 21.3528 51.0468 21.7475C51.1963 22.1421 51.2541 22.5656 51.216 22.9859C51.1778 23.4061 51.0447 23.8122 50.8266 24.1735C50.6085 24.5348 50.3112 24.8418 49.9572 25.0714Z" fill="#388E3C"/>
</svg>
